<svg xmlns="http://www.w3.org/2000/svg" width="23.621" height="33.02" viewBox="0 0 23.621 33.02">
  <path id="Union_3" data-name="Union 3" d="M20.27,33.02H3.35a3.6,3.6,0,0,1-1.689-.41A3.07,3.07,0,0,1,.31,31.22,3.433,3.433,0,0,1,0,29.76a5.517,5.517,0,0,1,.34-1.78c.28-.77.71-1.75,1.22-2.86s1.111-2.35,1.71-3.6c1.22-2.49,2.47-5.04,3.13-6.65a10.942,10.942,0,0,0,.4-1.08V3.84H8.72v9.73a2.206,2.206,0,0,1-.06.46q-.05.209-.12.45-.15.46-.39,1.05a26.517,26.517,0,0,1-1.27,2.82c-1,2.13-2.261,4.64-3.261,6.77-.66,1.42-1.229,2.68-1.52,3.5a3.409,3.409,0,0,0-.229,1.14A1.464,1.464,0,0,0,2,30.4a1.166,1.166,0,0,0,.3.39,1.655,1.655,0,0,0,1,.32H20.23a1.689,1.689,0,0,0,.8-.18,1.14,1.14,0,0,0,.509-.53,1.452,1.452,0,0,0,.13-.64,3.388,3.388,0,0,0-.23-1.14c-.239-.67-.67-1.64-1.18-2.75s-1.11-2.36-1.73-3.63c-1.18-2.54-2.5-5.11-3.18-6.8a9.182,9.182,0,0,1-.44-1.271,2.177,2.177,0,0,1-.09-.6V3.84h1.91V13.63c.02.06.01.04.08.27s.19.551.34.911c.29.73.73,1.73,1.219,2.73.99,2.09,2.26,4.6,3.26,6.77a38.929,38.929,0,0,1,1.6,3.67,5.53,5.53,0,0,1,.391,1.83,3.444,3.444,0,0,1-.31,1.46,3.127,3.127,0,0,1-.83,1,3.5,3.5,0,0,1-2.167.75ZM3.182,29.755a.873.873,0,0,1-.132-.795c.25-.7.75-1.85,1.48-3.41.519-1.09,1.1-2.291,1.679-3.48.15-.3.29-.6.43-.89H16.85l.381.78.349.72c.561,1.15,1.17,2.43,1.721,3.61s.93,2.08,1.139,2.67A.819.819,0,0,1,19.7,30.1H3.875A.87.87,0,0,1,3.182,29.755ZM7.22,24.89a2,2,0,1,0,2-2H9.2A2,2,0,0,0,7.22,24.89Zm6.152-2.015a1.189,1.189,0,1,0,.848-.346h-.01A1.188,1.188,0,0,0,13.372,22.875Zm-.618-3.085a1.79,1.79,0,1,1,.027,0ZM10.59,12.27a1,1,0,1,1,1,1A1,1,0,0,1,10.59,12.27ZM6.421,2.76h0A1.38,1.38,0,1,1,6.42,0H17.1a1.38,1.38,0,0,1,0,2.76Z" fill="currentColor"/>
</svg>
